<svg width="37" height="37" viewBox="0 0 37 37" fill="none" xmlns="http://www.w3.org/2000/svg">
<path d="M20.325 9C19.0984 9 17.922 9.48728 17.0546 10.3546C16.1873 11.222 15.7 12.3984 15.7 13.625V16.2H13.225C13.101 16.2 13 16.3 13 16.425V19.825C13 19.949 13.1 20.05 13.225 20.05H15.7V27.025C15.7 27.149 15.8 27.25 15.925 27.25H19.325C19.449 27.25 19.55 27.15 19.55 27.025V20.05H22.047C22.15 20.05 22.24 19.98 22.265 19.88L23.115 16.48C23.1234 16.4468 23.1241 16.4122 23.117 16.3787C23.11 16.3452 23.0954 16.3138 23.0744 16.2868C23.0533 16.2598 23.0264 16.2379 22.9957 16.2229C22.965 16.2079 22.9312 16.2 22.897 16.2H19.55V13.625C19.55 13.5232 19.57 13.4224 19.609 13.3284C19.6479 13.2344 19.705 13.149 19.777 13.077C19.849 13.005 19.9344 12.9479 20.0284 12.909C20.1224 12.87 20.2232 12.85 20.325 12.85H22.925C23.049 12.85 23.15 12.75 23.15 12.625V9.225C23.15 9.101 23.05 9 22.925 9H20.325Z" fill="#333333"/>
<rect x="0.5" y="0.5" width="35.15" height="35.25" rx="17.575" stroke="#333333"/>
</svg>
