<svg width="36" height="36" viewBox="0 0 36 36" fill="none" xmlns="http://www.w3.org/2000/svg">
<path d="M18 11C19.9019 11 20.1392 11.007 20.8854 11.042C21.6309 11.077 22.1384 11.1939 22.585 11.3675C23.047 11.5453 23.4362 11.7861 23.8254 12.1746C24.1813 12.5245 24.4568 12.9478 24.6325 13.415C24.8054 13.8609 24.923 14.3691 24.958 15.1146C24.9909 15.8608 25 16.0981 25 18C25 19.9019 24.993 20.1392 24.958 20.8854C24.923 21.6309 24.8054 22.1384 24.6325 22.585C24.4573 23.0524 24.1818 23.4758 23.8254 23.8254C23.4754 24.1812 23.0521 24.4566 22.585 24.6325C22.1391 24.8054 21.6309 24.923 20.8854 24.958C20.1392 24.9909 19.9019 25 18 25C16.0981 25 15.8608 24.993 15.1146 24.958C14.3691 24.923 13.8616 24.8054 13.415 24.6325C12.9476 24.4571 12.5243 24.1817 12.1746 23.8254C11.8186 23.4755 11.5432 23.0522 11.3675 22.585C11.1939 22.1391 11.077 21.6309 11.042 20.8854C11.0091 20.1392 11 19.9019 11 18C11 16.0981 11.007 15.8608 11.042 15.1146C11.077 14.3684 11.1939 13.8616 11.3675 13.415C11.5427 12.9475 11.8182 12.5241 12.1746 12.1746C12.5244 11.8185 12.9477 11.543 13.415 11.3675C13.8616 11.1939 14.3684 11.077 15.1146 11.042C15.8608 11.0091 16.0981 11 18 11ZM18 14.5C17.0717 14.5 16.1815 14.8687 15.5251 15.5251C14.8687 16.1815 14.5 17.0717 14.5 18C14.5 18.9283 14.8687 19.8185 15.5251 20.4749C16.1815 21.1313 17.0717 21.5 18 21.5C18.9283 21.5 19.8185 21.1313 20.4749 20.4749C21.1313 19.8185 21.5 18.9283 21.5 18C21.5 17.0717 21.1313 16.1815 20.4749 15.5251C19.8185 14.8687 18.9283 14.5 18 14.5ZM22.55 14.325C22.55 14.0929 22.4578 13.8704 22.2937 13.7063C22.1296 13.5422 21.9071 13.45 21.675 13.45C21.4429 13.45 21.2204 13.5422 21.0563 13.7063C20.8922 13.8704 20.8 14.0929 20.8 14.325C20.8 14.5571 20.8922 14.7796 21.0563 14.9437C21.2204 15.1078 21.4429 15.2 21.675 15.2C21.9071 15.2 22.1296 15.1078 22.2937 14.9437C22.4578 14.7796 22.55 14.5571 22.55 14.325ZM18 15.9C18.557 15.9 19.0911 16.1212 19.4849 16.5151C19.8788 16.9089 20.1 17.443 20.1 18C20.1 18.557 19.8788 19.0911 19.4849 19.4849C19.0911 19.8788 18.557 20.1 18 20.1C17.443 20.1 16.9089 19.8788 16.5151 19.4849C16.1212 19.0911 15.9 18.557 15.9 18C15.9 17.443 16.1212 16.9089 16.5151 16.5151C16.9089 16.1212 17.443 15.9 18 15.9Z" fill="#333333"/>
<rect x="0.5" y="0.5" width="35" height="35" rx="17.5" stroke="#333333"/>
</svg>
