<svg width="37" height="36" viewBox="0 0 37 36" fill="none" xmlns="http://www.w3.org/2000/svg">
<path d="M25.52 13.7941C24.9708 14.0206 24.3789 14.1694 23.7655 14.2406C24.3932 13.8976 24.8781 13.3541 25.1063 12.7006C24.5144 13.0241 23.8583 13.2506 23.1665 13.38C22.603 12.8235 21.8114 12.5 20.9128 12.5C19.2368 12.5 17.8674 13.7424 17.8674 15.2759C17.8674 15.4959 17.896 15.7094 17.9459 15.91C15.4069 15.7935 13.1461 14.6871 11.6413 13.0112C11.3774 13.4188 11.2276 13.8976 11.2276 14.4024C11.2276 15.3665 11.7625 16.2206 12.5898 16.7059C12.0834 16.7059 11.6127 16.5765 11.1991 16.3824V16.4018C11.1991 17.7476 12.2546 18.8735 13.6525 19.1259C13.2037 19.2373 12.7325 19.2528 12.276 19.1712C12.4697 19.7228 12.8491 20.2054 13.3608 20.5513C13.8725 20.8972 14.4908 21.0889 15.1288 21.0994C14.0473 21.8762 12.7068 22.296 11.3275 22.29C11.085 22.29 10.8425 22.2771 10.6 22.2512C11.9551 23.0406 13.5669 23.5 15.2928 23.5C20.9128 23.5 24.0009 19.2682 24.0009 15.5994C24.0009 15.4765 24.0009 15.36 23.9938 15.2371C24.5928 14.8488 25.1063 14.3571 25.52 13.7941Z" fill="#333333"/>
<rect x="0.5" y="0.5" width="35.12" height="35" rx="17.5" stroke="#333333"/>
</svg>
